<svg id="visual" viewBox="0 0 1864 931" width="1864" height="931" xmlns="http://www.w3.org/2000/svg" xmlns:xlink="http://www.w3.org/1999/xlink" version="1.1"><path d="M0 499L44.3 513.3C88.7 527.7 177.3 556.3 266.2 568.5C355 580.7 444 576.3 532.8 577.8C621.7 579.3 710.3 586.7 799 571C887.7 555.3 976.3 516.7 1065 509.2C1153.7 501.7 1242.3 525.3 1331.2 538C1420 550.7 1509 552.3 1597.8 546.5C1686.7 540.7 1775.3 527.3 1819.7 520.7L1864 514L1864 932L1819.7 932C1775.3 932 1686.7 932 1597.8 932C1509 932 1420 932 1331.2 932C1242.3 932 1153.7 932 1065 932C976.3 932 887.7 932 799 932C710.3 932 621.7 932 532.8 932C444 932 355 932 266.2 932C177.3 932 88.7 932 44.3 932L0 932Z" fill="#6dfa69"></path><path d="M0 561L44.3 568C88.7 575 177.3 589 266.2 588C355 587 444 571 532.8 581C621.7 591 710.3 627 799 633.2C887.7 639.3 976.3 615.7 1065 596C1153.7 576.3 1242.3 560.7 1331.2 560.5C1420 560.3 1509 575.7 1597.8 592.8C1686.7 610 1775.3 629 1819.7 638.5L1864 648L1864 932L1819.7 932C1775.3 932 1686.7 932 1597.8 932C1509 932 1420 932 1331.2 932C1242.3 932 1153.7 932 1065 932C976.3 932 887.7 932 799 932C710.3 932 621.7 932 532.8 932C444 932 355 932 266.2 932C177.3 932 88.7 932 44.3 932L0 932Z" fill="#5be256"></path><path d="M0 716L44.3 709C88.7 702 177.3 688 266.2 686C355 684 444 694 532.8 703C621.7 712 710.3 720 799 707.3C887.7 694.7 976.3 661.3 1065 649.2C1153.7 637 1242.3 646 1331.2 664.7C1420 683.3 1509 711.7 1597.8 719.7C1686.7 727.7 1775.3 715.3 1819.7 709.2L1864 703L1864 932L1819.7 932C1775.3 932 1686.7 932 1597.8 932C1509 932 1420 932 1331.2 932C1242.3 932 1153.7 932 1065 932C976.3 932 887.7 932 799 932C710.3 932 621.7 932 532.8 932C444 932 355 932 266.2 932C177.3 932 88.7 932 44.3 932L0 932Z" fill="#49cb43"></path><path d="M0 777L44.3 773C88.7 769 177.3 761 266.2 752.5C355 744 444 735 532.8 732C621.7 729 710.3 732 799 724.2C887.7 716.3 976.3 697.7 1065 703.7C1153.7 709.7 1242.3 740.3 1331.2 758C1420 775.7 1509 780.3 1597.8 766.7C1686.7 753 1775.3 721 1819.7 705L1864 689L1864 932L1819.7 932C1775.3 932 1686.7 932 1597.8 932C1509 932 1420 932 1331.2 932C1242.3 932 1153.7 932 1065 932C976.3 932 887.7 932 799 932C710.3 932 621.7 932 532.8 932C444 932 355 932 266.2 932C177.3 932 88.7 932 44.3 932L0 932Z" fill="#36b430"></path><path d="M0 785L44.3 781.8C88.7 778.7 177.3 772.3 266.2 769.3C355 766.3 444 766.7 532.8 776.5C621.7 786.3 710.3 805.7 799 804.3C887.7 803 976.3 781 1065 775.5C1153.7 770 1242.3 781 1331.2 781.5C1420 782 1509 772 1597.8 767.2C1686.7 762.3 1775.3 762.7 1819.7 762.8L1864 763L1864 932L1819.7 932C1775.3 932 1686.7 932 1597.8 932C1509 932 1420 932 1331.2 932C1242.3 932 1153.7 932 1065 932C976.3 932 887.7 932 799 932C710.3 932 621.7 932 532.8 932C444 932 355 932 266.2 932C177.3 932 88.7 932 44.3 932L0 932Z" fill="#219e1c"></path><path d="M0 813L44.3 813.2C88.7 813.3 177.3 813.7 266.2 819.3C355 825 444 836 532.8 844.5C621.7 853 710.3 859 799 862C887.7 865 976.3 865 1065 864.8C1153.7 864.7 1242.3 864.3 1331.2 865.5C1420 866.7 1509 869.3 1597.8 865C1686.7 860.7 1775.3 849.3 1819.7 843.7L1864 838L1864 932L1819.7 932C1775.3 932 1686.7 932 1597.8 932C1509 932 1420 932 1331.2 932C1242.3 932 1153.7 932 1065 932C976.3 932 887.7 932 799 932C710.3 932 621.7 932 532.8 932C444 932 355 932 266.2 932C177.3 932 88.7 932 44.3 932L0 932Z" fill="#008800"></path></svg>